<?xml version="1.0" standalone="no"?>
<!DOCTYPE svg PUBLIC "-//W3C//DTD SVG 1.1//EN" "http://www.w3.org/Graphics/SVG/1.1/DTD/svg11.dtd" >
<svg xmlns="http://www.w3.org/2000/svg">
<metadata></metadata>
<defs>
<font id="utm_bitsumishi_proregular" horiz-adv-x="1226" >
<font-face units-per-em="2048" ascent="1638" descent="-410" />
<missing-glyph horiz-adv-x="614" />
<glyph horiz-adv-x="2048" />
<glyph horiz-adv-x="2048" />
<glyph unicode="&#xd;" horiz-adv-x="571" />
<glyph unicode=" "  horiz-adv-x="614" />
<glyph unicode="&#x09;" horiz-adv-x="614" />
<glyph unicode="&#xa0;" horiz-adv-x="614" />
<glyph unicode="!" horiz-adv-x="397" d="M51 0v246h295v-246h-295zM51 406v649h295v-649h-295z" />
<glyph unicode="&#x22;" horiz-adv-x="612" d="M51 520v535h225l-119 -535h-106zM336 520v535h225l-119 -535h-106z" />
<glyph unicode="#" horiz-adv-x="1157" d="M51 274v156h274v193h-274v155h274v277h156v-277h193v277h155v-277h277v-155h-277v-193h277v-156h-277v-274h-155v274h-193v-274h-156v274h-274zM481 430h193v193h-193v-193z" />
<glyph unicode="$" horiz-adv-x="1298" d="M20 729q0 134 82 228q85 98 215 98h207v180h250v-180h452v-246h-909q-51 0 -51 -80q0 -78 51 -78h664q127 0 213 -95q83 -94 83 -230q0 -137 -83 -231q-86 -95 -213 -95h-207v-182h-250v182h-453v246h910q51 0 51 80t-51 80h-664q-127 0 -213 95q-84 94 -84 228z" />
<glyph unicode="%" horiz-adv-x="1058" d="M20 815v35q0 87 63 146q62 59 150 59h68q86 0 148 -60q63 -60 63 -145v-35q0 -87 -62 -146q-61 -59 -149 -59h-68q-88 0 -150 59q-63 59 -63 146zM71 0l727 1055h185l-727 -1055h-185zM172 815q0 -53 61 -53h68q59 0 59 53v35q0 53 -59 53h-68q-61 0 -61 -53v-35z M546 205v37q0 86 63 146q62 58 150 58h68q87 0 148 -59q63 -60 63 -145v-37q0 -87 -62 -146q-61 -59 -149 -59h-68q-88 0 -150 59q-63 59 -63 146zM698 205q0 -53 61 -53h68q59 0 59 53v37q0 53 -59 53h-68q-61 0 -61 -53v-37z" />
<glyph unicode="&#x26;" horiz-adv-x="1234" d="M51 289q0 163 129 246q-111 82 -111 231q0 127 83 208t212 81h129v182h248v-182h129q129 0 212 -84q83 -83 83 -209v-35h-242q0 82 -53 82h-506q-51 0 -51 -80q0 -78 51 -78h484v-245h-500q-53 0 -53 -80t53 -80h543q49 0 49 80h244v-35q0 -128 -82 -209 q-82 -82 -211 -82h-150v-186h-248v186h-145q-132 0 -215 83q-82 81 -82 206z" />
<glyph unicode="'" horiz-adv-x="397" d="M51 520v535h295l-121 -535h-174z" />
<glyph unicode="(" horiz-adv-x="528" d="M51 88v879q0 141 101 238q100 95 243 95h113v-245h-113q-98 0 -98 -88v-879q0 -88 98 -88h113v-246h-113q-144 0 -243 96q-101 96 -101 238z" />
<glyph unicode=")" horiz-adv-x="528" d="M20 0h113q98 0 98 88v879q0 88 -98 88h-113v245h113q142 0 242 -95q102 -97 102 -238v-879q0 -141 -102 -238q-100 -96 -242 -96h-113v246z" />
<glyph unicode="*" horiz-adv-x="565" d="M51 631l143 145h-143v119h172v160h119v-160h172v-119h-144l144 -145l-82 -84l-152 151l-147 -151z" />
<glyph unicode="+" horiz-adv-x="1032" d="M51 406v245h340v340h246v-340h344v-245h-344v-343h-246v343h-340z" />
<glyph unicode="," horiz-adv-x="397" d="M51 246h295l-121 -535h-174v535z" />
<glyph unicode="-" horiz-adv-x="825" d="M51 406v245h723v-245h-723z" />
<glyph unicode="." horiz-adv-x="397" d="M51 0v246h295v-246h-295z" />
<glyph unicode="/" horiz-adv-x="931" d="M-20 0l727 1055h246l-727 -1055h-246z" />
<glyph unicode="0" horiz-adv-x="1130" d="M51 334v387q0 141 101 238q100 96 243 96h342q142 0 242 -97q100 -98 100 -237v-387q0 -142 -99 -239q-99 -95 -243 -95h-342q-144 0 -243 95q-101 96 -101 239zM297 334q0 -88 98 -88h342q96 0 96 88v387q0 88 -96 88h-342q-98 0 -98 -88v-387z" />
<glyph unicode="1" horiz-adv-x="555" d="M20 809v246h483v-1055h-245v809h-238z" />
<glyph unicode="2" horiz-adv-x="1175" d="M20 0v125q0 526 537 526h280q53 0 53 80q0 78 -53 78h-766v246h766q128 0 213 -96q84 -93 84 -230t-85 -230q-86 -93 -212 -93h-280q-138 0 -196 -38q-54 -35 -69 -122h793v-246h-1065z" />
<glyph unicode="3" horiz-adv-x="1208" d="M20 291v35h244q0 -80 53 -80h543q53 0 53 80t-53 80h-502v245h481q53 0 53 78q0 80 -53 80h-502q-53 0 -53 -82h-244v35q0 127 83 209q83 84 214 84h502q132 0 215 -83q82 -81 82 -206q0 -148 -108 -231q129 -80 129 -244q0 -125 -84 -208t-213 -83h-543q-131 0 -215 83 q-82 82 -82 208z" />
<glyph unicode="4" horiz-adv-x="1148" d="M20 453l606 602h332v-596h170v-246h-170v-213h-248v213h-688zM329 459h381v360z" />
<glyph unicode="5" horiz-adv-x="1101" d="M51 334h246q0 -88 98 -88h342q98 0 98 88v51q0 86 -98 86h-686v584h971v-246h-725v-92h440q143 0 243 -95q101 -96 101 -237v-51q0 -143 -101 -239q-100 -95 -243 -95h-342q-144 0 -243 95q-101 96 -101 239z" />
<glyph unicode="6" horiz-adv-x="1101" d="M51 334v385q0 142 101 239t243 97h584v-246h-584q-98 0 -98 -90v-14q46 12 98 12h342q143 0 243 -95q101 -96 101 -237v-51q0 -143 -101 -239q-100 -95 -243 -95h-342q-144 0 -243 95q-101 96 -101 239zM297 334q0 -88 98 -88h342q98 0 98 88v51q0 86 -98 86h-342 q-98 0 -98 -86v-51z" />
<glyph unicode="7" horiz-adv-x="1144" d="M20 809v246h1104v-242l-604 -813h-332l629 809h-797z" />
<glyph unicode="8" horiz-adv-x="1236" d="M51 291q0 163 127 244q-109 83 -109 229q0 127 83 208q82 83 212 83h506q130 0 213 -83q82 -81 82 -208q0 -146 -108 -229q129 -80 129 -244q0 -128 -84 -209q-83 -82 -213 -82h-541q-132 0 -215 82q-82 81 -82 209zM295 326q0 -80 53 -80h541q53 0 53 80t-53 80h-541 q-53 0 -53 -80zM313 729q0 -78 51 -78h506q53 0 53 78q0 80 -53 80h-506q-51 0 -51 -80z" />
<glyph unicode="9" horiz-adv-x="1099" d="M20 668v51q0 142 101 239t243 97h342q143 0 243 -98q99 -97 99 -238v-385q0 -142 -99 -239q-99 -95 -243 -95h-522v246h522q96 0 96 88l-438 2q-145 0 -243 93q-101 95 -101 239zM266 668q0 -86 98 -86h438v137q0 90 -96 90h-342q-98 0 -98 -90v-51z" />
<glyph unicode=":" horiz-adv-x="397" d="M51 0v246h295v-246h-295zM51 406v245h295v-245h-295z" />
<glyph unicode=";" horiz-adv-x="397" d="M51 246h295l-121 -535h-174v535zM51 406v245h295v-245h-295z" />
<glyph unicode="&#x3c;" horiz-adv-x="890" d="M0 518l522 385h369l-522 -385l522 -373h-369z" />
<glyph unicode="=" horiz-adv-x="1030" d="M51 227v246h928v-246h-928zM51 580v245h928v-245h-928z" />
<glyph unicode="&#x3e;" horiz-adv-x="890" d="M0 145l522 373l-522 385h369l522 -385l-522 -373h-369z" />
<glyph unicode="?" horiz-adv-x="1103" d="M20 809v246h766q128 0 213 -96q84 -93 84 -230t-86 -230q-85 -93 -211 -93h-524v245h524q53 0 53 80q0 78 -53 78h-766zM262 0v246h295v-246h-295z" />
<glyph unicode="@" horiz-adv-x="1810" d="M51 88v879q0 141 101 238q100 95 243 95h1020q143 0 243 -95q101 -97 101 -238v-475q0 -142 -101 -238q-100 -94 -243 -94h-623q-143 0 -242 95q-100 97 -100 239v69q0 140 101 237q100 97 241 97h568v-491h55q98 0 98 88v473q0 88 -98 88h-1020q-98 0 -98 -88v-879 q0 -88 98 -88h965v-246h-965q-144 0 -243 96q-101 96 -101 238zM698 494q0 -88 94 -88h322v245h-322q-94 0 -94 -88v-69z" />
<glyph unicode="A" horiz-adv-x="1394" d="M51 0v729q0 134 82 228q85 98 215 98h696q130 0 216 -98q83 -94 83 -228v-729h-245v336h-801v-336h-246zM297 582h801v147q0 80 -54 80h-696q-51 0 -51 -80v-147z" />
<glyph unicode="B" horiz-adv-x="1421" d="M51 0v1055h1004q129 0 212 -83q82 -81 82 -208q0 -146 -108 -229q129 -80 129 -244q0 -125 -83 -208q-84 -83 -214 -83h-1022zM297 246h776q53 0 53 80t-53 80h-776v-160zM297 651h758q53 0 53 78q0 80 -53 80h-758v-158z" />
<glyph unicode="C" horiz-adv-x="1261" d="M51 334v387q0 141 101 238q100 96 243 96h815v-246h-815q-98 0 -98 -88v-387q0 -88 98 -88h815v-246h-815q-144 0 -243 95q-101 96 -101 239z" />
<glyph unicode="D" horiz-adv-x="1257" d="M51 0v1055h813q142 0 242 -97q100 -98 100 -237v-387q0 -142 -100 -239q-98 -95 -242 -95h-813zM297 246h567q94 0 94 88v387q0 88 -94 88h-567v-563z" />
<glyph unicode="E" d="M51 0v1055h1124v-246h-878v-158h821v-245h-821v-160h878v-246h-1124z" />
<glyph unicode="F" horiz-adv-x="1196" d="M51 0v1055h1124v-246h-878v-158h823v-245h-823v-406h-246z" />
<glyph unicode="G" horiz-adv-x="1261" d="M51 334v387q0 141 101 238q100 96 243 96h815v-246h-815q-98 0 -98 -88v-387q0 -88 98 -88h569v160h-333v245h579v-651h-815q-144 0 -243 95q-101 96 -101 239z" />
<glyph unicode="H" d="M51 0v1055h246v-404h631v404h247v-1055h-247v406h-631v-406h-246z" />
<glyph unicode="I" horiz-adv-x="348" d="M51 0v1055h246v-1055h-246z" />
<glyph unicode="J" horiz-adv-x="937" d="M20 0v246h522q96 0 96 88v721h248v-721q0 -143 -101 -239q-100 -95 -243 -95h-522z" />
<glyph unicode="K" horiz-adv-x="1175" d="M51 0v1055h246v-404h151l383 404h336l-504 -529l533 -526h-336l-408 406h-155v-406h-246z" />
<glyph unicode="L" horiz-adv-x="1024" d="M51 0v1055h246v-809h706v-246h-952z" />
<glyph unicode="M" horiz-adv-x="1470" d="M51 0v1055h258l426 -609l428 609h256v-1055h-246v643l-438 -625l-438 625v-643h-246z" />
<glyph unicode="N" d="M51 0v1055h246l633 -705v705h245v-1055h-245l-633 711v-711h-246z" />
<glyph unicode="O" horiz-adv-x="1409" d="M51 334v387q0 141 101 238q100 96 243 96h619q142 0 242 -96q102 -97 102 -238v-387q0 -143 -102 -239q-99 -95 -242 -95h-619q-144 0 -243 95q-101 96 -101 239zM297 334q0 -88 98 -88h619q98 0 98 88v387q0 88 -98 88h-619q-98 0 -98 -88v-387z" />
<glyph unicode="P" horiz-adv-x="1390" d="M51 0v1055h1020q129 0 215 -105q84 -102 84 -252q0 -148 -84 -250q-86 -104 -215 -104h-774v-344h-246zM297 590h774q53 0 53 108q0 111 -53 111h-774v-219z" />
<glyph unicode="Q" horiz-adv-x="1411" d="M51 334v387q0 141 101 238q100 96 243 96h621q142 0 242 -96q102 -97 102 -238v-387q0 -143 -102 -239q-99 -95 -242 -95h-189v-158h-246v158h-186q-144 0 -243 95q-101 96 -101 239zM297 334q0 -88 98 -88h186v160h246v-160h189q98 0 98 88v387q0 88 -98 88h-621 q-98 0 -98 -88v-387z" />
<glyph unicode="R" horiz-adv-x="1392" d="M51 0v1055h1022q133 0 217 -104q82 -100 82 -251t-82 -251q-84 -103 -217 -103h-94l309 -346h-336l-309 346h-346v-346h-246zM297 592h762q67 0 67 108q0 109 -67 109h-762v-217z" />
<glyph unicode="S" horiz-adv-x="1298" d="M20 729q0 134 83 228q87 98 216 98h909v-246h-909q-51 0 -51 -80q0 -78 51 -78h662q127 0 213 -95q83 -94 83 -230q0 -137 -83 -231q-86 -95 -213 -95h-910v246h910q51 0 51 80t-51 80h-662q-127 0 -213 94q-86 93 -86 229z" />
<glyph unicode="T" horiz-adv-x="1236" d="M20 809v246h1196v-246h-475v-809h-246v809h-475z" />
<glyph unicode="U" horiz-adv-x="1396" d="M51 326v729h246v-729q0 -80 53 -80h696q52 0 52 80v729h247v-729q0 -134 -83 -228q-86 -98 -216 -98h-696q-132 0 -217 97q-82 93 -82 229z" />
<glyph unicode="V" horiz-adv-x="1243" d="M-20 1055h274l371 -721l365 721h274l-536 -1055h-209z" />
<glyph unicode="W" horiz-adv-x="1632" d="M-20 1055h262l223 -629l220 629h258l223 -629l227 629h260l-379 -1055h-213l-243 682l-244 -682h-215z" />
<glyph unicode="X" horiz-adv-x="1163" d="M-20 0l442 535l-430 520h320l270 -328l270 328h320l-430 -520l442 -535h-319l-283 340l-283 -340h-319z" />
<glyph unicode="Y" horiz-adv-x="1372" d="M40 729v326h246v-326q0 -78 51 -78h696q51 0 51 78v326h246v-326q0 -137 -85 -230q-86 -93 -212 -93h-223v-406h-246v406h-227q-127 0 -213 95q-84 94 -84 228z" />
<glyph unicode="Z" horiz-adv-x="1210" d="M40 0v246l719 563h-719v246h1104v-242l-707 -567h731v-246h-1128z" />
<glyph unicode="[" horiz-adv-x="528" d="M51 -246v1546h457v-245h-211v-1055h211v-246h-457z" />
<glyph unicode="\" horiz-adv-x="931" d="M-20 1055h246l727 -1055h-246z" />
<glyph unicode="]" horiz-adv-x="528" d="M20 0h211v1055h-211v245h457v-1546h-457v246z" />
<glyph unicode="^" horiz-adv-x="1024" />
<glyph unicode="_" horiz-adv-x="1030" d="M51 -109h928v-245h-928v245z" />
<glyph unicode="`" horiz-adv-x="555" d="M51 1346h285l168 -207h-230z" />
<glyph unicode="a" horiz-adv-x="1394" d="M51 0v729q0 134 82 228q85 98 215 98h696q130 0 216 -98q83 -94 83 -228v-729h-245v336h-648v246h648v147q0 80 -54 80h-696q-51 0 -51 -80v-729h-246z" />
<glyph unicode="b" horiz-adv-x="1421" d="M51 0v1055h1004q129 0 212 -83q82 -81 82 -208q0 -146 -108 -229q129 -80 129 -244q0 -125 -83 -208q-84 -83 -214 -83h-1022zM297 246h776q53 0 53 80t-53 80h-623v245h605q53 0 53 78q0 80 -53 80h-758v-563z" />
<glyph unicode="c" horiz-adv-x="1261" d="M51 334v387q0 141 101 238q100 96 243 96h815v-246h-815q-98 0 -98 -88v-387q0 -88 98 -88h815v-246h-815q-144 0 -243 95q-101 96 -101 239z" />
<glyph unicode="d" horiz-adv-x="1257" d="M51 0v651h246v-405h567q94 0 94 88v387q0 88 -94 88h-813v246h813q142 0 242 -97q100 -98 100 -237v-387q0 -142 -100 -239q-98 -95 -242 -95h-813z" />
<glyph unicode="e" d="M51 0v1055h1124v-246h-878v-563h878v-246h-1124zM450 406v245h668v-245h-668z" />
<glyph unicode="f" horiz-adv-x="1196" d="M51 0v1055h1124v-246h-878v-809h-246zM450 406v245h670v-245h-670z" />
<glyph unicode="g" horiz-adv-x="1261" d="M51 334v387q0 141 101 238q100 96 243 96h815v-246h-815q-98 0 -98 -88v-387q0 -88 98 -88h569v160h-333v245h579v-651h-815q-144 0 -243 95q-101 96 -101 239z" />
<glyph unicode="h" horiz-adv-x="1400" d="M51 0v1055h246v-404h803v404h249v-1055h-249v406h-803v-406h-246z" />
<glyph unicode="i" horiz-adv-x="348" d="M51 0v1055h246v-1055h-246z" />
<glyph unicode="j" horiz-adv-x="1040" d="M20 0v246h625q96 0 96 88v721h248v-721q0 -143 -102 -239q-99 -95 -242 -95h-625z" />
<glyph unicode="k" horiz-adv-x="1206" d="M51 0v1055h246v-1055h-246zM364 526l490 529h336l-494 -529l531 -526h-336z" />
<glyph unicode="l" horiz-adv-x="1126" d="M51 0v1055h246v-809h809v-246h-1055z" />
<glyph unicode="m" horiz-adv-x="1470" d="M51 0v1055h258l426 -609l428 609h256v-1055h-246v643l-438 -625l-438 625v-643h-246z" />
<glyph unicode="n" d="M51 0v1055h246l633 -705v705h245v-1055h-245l-633 711v-711h-246z" />
<glyph unicode="o" horiz-adv-x="1409" d="M51 334v387q0 141 101 238q100 96 243 96h619q142 0 242 -96q102 -97 102 -238v-387q0 -143 -102 -239q-99 -95 -242 -95h-619q-144 0 -243 95q-101 96 -101 239zM297 334q0 -88 98 -88h619q98 0 98 88v387q0 88 -98 88h-619q-98 0 -98 -88v-387z" />
<glyph unicode="p" horiz-adv-x="1390" d="M51 0v1055h1020q129 0 215 -105q84 -102 84 -252q0 -148 -84 -250q-86 -104 -215 -104h-621v246h621q53 0 53 108q0 111 -53 111h-774v-809h-246z" />
<glyph unicode="q" horiz-adv-x="1411" d="M51 334v387q0 141 101 238q100 96 243 96h621q142 0 242 -96q102 -97 102 -238v-387q0 -143 -102 -239q-99 -95 -242 -95h-189v-158h-246v158h-186q-144 0 -243 95q-101 96 -101 239zM297 334q0 -88 98 -88h186v160h246v-160h189q98 0 98 88v387q0 88 -98 88h-621 q-98 0 -98 -88v-387z" />
<glyph unicode="r" horiz-adv-x="1392" d="M51 0v1055h1022q133 0 217 -104q82 -100 82 -251t-82 -251q-84 -103 -217 -103h-94l309 -346h-336l-526 592h633q67 0 67 108q0 109 -67 109h-762v-809h-246z" />
<glyph unicode="s" horiz-adv-x="1298" d="M20 729q0 134 83 228q87 98 216 98h909v-246h-909q-51 0 -51 -80q0 -78 51 -78h662q127 0 213 -95q83 -94 83 -230q0 -137 -83 -231q-86 -95 -213 -95h-910v246h910q51 0 51 80t-51 80h-662q-127 0 -213 94q-86 93 -86 229z" />
<glyph unicode="t" horiz-adv-x="1236" d="M20 809v246h1196v-246h-1196zM495 0v651h246v-651h-246z" />
<glyph unicode="u" horiz-adv-x="1396" d="M51 326v729h246v-729q0 -80 53 -80h696q52 0 52 80v729h247v-729q0 -134 -83 -228q-86 -98 -216 -98h-696q-132 0 -217 97q-82 93 -82 229z" />
<glyph unicode="v" horiz-adv-x="1243" d="M-20 1055h274l371 -721l365 721h274l-536 -1055h-209z" />
<glyph unicode="w" horiz-adv-x="1632" d="M-20 1055h262l223 -629l220 629h258l223 -629l227 629h260l-379 -1055h-213l-243 682l-244 -682h-215z" />
<glyph unicode="x" horiz-adv-x="1163" d="M-20 0l442 535l-430 520h320l270 -328l270 328h320l-430 -520l442 -535h-319l-283 340l-283 -340h-319z" />
<glyph unicode="y" horiz-adv-x="1372" d="M40 729v326h246v-326q0 -78 51 -78h696q51 0 51 78v326h246v-326q0 -137 -85 -230q-86 -93 -212 -93h-223v-406h-246v406h-227q-127 0 -213 95q-84 94 -84 228z" />
<glyph unicode="z" horiz-adv-x="1210" d="M40 0v246l719 563h-719v246h1104v-242l-707 -567h731v-246h-1128z" />
<glyph unicode="{" horiz-adv-x="767" />
<glyph unicode="|" horiz-adv-x="419" />
<glyph unicode="}" horiz-adv-x="842" />
<glyph unicode="~" horiz-adv-x="1279" />
<glyph unicode="&#xa8;" horiz-adv-x="1024" />
<glyph unicode="&#xa9;" horiz-adv-x="1615" d="M51 88v879q0 141 101 238q100 95 243 95h825q143 0 243 -95q101 -97 101 -238v-881q0 -141 -101 -237q-100 -95 -243 -95h-825q-144 0 -243 96q-101 96 -101 238zM297 88q0 -88 98 -88h825q99 0 99 88v879q0 88 -99 88h-825q-98 0 -98 -88v-879zM450 494v69 q0 140 101 237q100 97 241 97h322v-246h-322q-94 0 -94 -88v-69q0 -88 94 -88h322v-246h-322q-143 0 -242 95q-100 97 -100 239z" />
<glyph unicode="&#xad;" horiz-adv-x="825" d="M51 406v245h723v-245h-723z" />
<glyph unicode="&#xae;" horiz-adv-x="750" />
<glyph unicode="&#xb4;" horiz-adv-x="1024" />
<glyph unicode="&#xb6;" horiz-adv-x="1390" d="M51 698q0 150 84 252q86 105 215 105h1020v-1348h-246v1102h-153v-1102h-246v637h-375q-129 0 -215 104q-84 102 -84 250z" />
<glyph unicode="&#xbc;" horiz-adv-x="1396" d="M20 903v152h299v-649h-152v497h-147zM167 0l727 1055h185l-727 -1055h-185zM692 279l375 372h204v-368h105v-152h-105v-131h-153v131h-424zM882 283h236v221z" />
<glyph unicode="&#xbd;" horiz-adv-x="1585" d="M20 903v152h299v-649h-152v497h-147zM167 0l727 1055h185l-727 -1055h-185zM845 0v78q0 325 332 325h172q33 0 33 48q0 49 -33 49h-471v151h471q79 0 132 -60q52 -59 52 -145q0 -84 -53 -142t-131 -58h-172q-147 0 -164 -94h490v-152h-658z" />
<glyph unicode="&#xbe;" horiz-adv-x="1755" d="M51 584v22h152q0 -49 32 -49h334q33 0 33 47t-33 47h-309v158h297q33 0 33 45q0 49 -33 49h-309q-33 0 -33 -49h-150v20q0 181 183 181h309q182 0 182 -178q0 -93 -67 -142q79 -49 79 -151q0 -178 -182 -178h-334q-184 0 -184 178zM526 0l727 1055h184l-727 -1055h-184z M1050 279l375 372h205v-368h104v-152h-104v-131h-154v131h-424zM1241 283h235v221z" />
<glyph unicode="&#xc0;" horiz-adv-x="1394" d="M51 0v729q0 134 82 228q85 98 215 98h696q130 0 216 -98q83 -94 83 -228v-729h-245v336h-801v-336h-246zM297 582h801v147q0 80 -54 80h-696q-51 0 -51 -80v-147zM389 1346h285l168 -207h-230z" />
<glyph unicode="&#xc1;" horiz-adv-x="1394" d="M51 0v729q0 134 82 228q85 98 215 98h696q130 0 216 -98q83 -94 83 -228v-729h-245v336h-801v-336h-246zM297 582h801v147q0 80 -54 80h-696q-51 0 -51 -80v-147zM553 1139l168 207h284l-223 -207h-229z" />
<glyph unicode="&#xc2;" horiz-adv-x="1394" d="M51 0v729q0 134 82 228q85 98 215 98h696q130 0 216 -98q83 -94 83 -228v-729h-245v336h-801v-336h-246zM297 582h801v147q0 80 -54 80h-696q-51 0 -51 -80v-147zM387 1139l168 207h284l168 -207h-219l-92 84l-90 -84h-219z" />
<glyph unicode="&#xc3;" horiz-adv-x="1394" d="M51 0v729q0 134 82 228q85 98 215 98h696q130 0 216 -98q83 -94 83 -228v-729h-245v336h-801v-336h-246zM297 582h801v147q0 80 -54 80h-696q-51 0 -51 -80v-147zM368 1118q0 228 215 228q37 0 72 -13q21 -8 60 -28q39 -21 61 -29q36 -12 74 -12q60 0 71 61h103 q0 -227 -207 -227q-36 0 -73 13q-22 7 -63 28q-42 20 -64 28q-38 13 -74 13q-55 0 -72 -62h-103z" />
<glyph unicode="&#xc8;" d="M51 0v1055h1124v-246h-878v-158h821v-245h-821v-160h878v-246h-1124zM305 1346h285l168 -207h-230z" />
<glyph unicode="&#xc9;" d="M51 0v1055h1124v-246h-878v-158h821v-245h-821v-160h878v-246h-1124zM469 1139l168 207h284l-223 -207h-229z" />
<glyph unicode="&#xca;" d="M51 0v1055h1124v-246h-878v-158h821v-245h-821v-160h878v-246h-1124zM303 1139l168 207h285l167 -207h-219l-92 84l-90 -84h-219z" />
<glyph unicode="&#xcc;" horiz-adv-x="348" d="M-133 1346h285l168 -207h-230zM51 0v1055h246v-1055h-246z" />
<glyph unicode="&#xcd;" horiz-adv-x="348" d="M30 1139l168 207h285l-224 -207h-229zM50 0v1055h246v-1055h-246z" />
<glyph unicode="&#xd2;" horiz-adv-x="1409" d="M51 334v387q0 141 101 238q100 96 243 96h619q142 0 242 -96q102 -97 102 -238v-387q0 -143 -102 -239q-99 -95 -242 -95h-619q-144 0 -243 95q-101 96 -101 239zM297 334q0 -88 98 -88h619q98 0 98 88v387q0 88 -98 88h-619q-98 0 -98 -88v-387zM395 1346h285l168 -207 h-230z" />
<glyph unicode="&#xd3;" horiz-adv-x="1409" d="M51 334v387q0 141 101 238q100 96 243 96h619q142 0 242 -96q102 -97 102 -238v-387q0 -143 -102 -239q-99 -95 -242 -95h-619q-144 0 -243 95q-101 96 -101 239zM297 334q0 -88 98 -88h619q98 0 98 88v387q0 88 -98 88h-619q-98 0 -98 -88v-387zM559 1139l168 207h285 l-224 -207h-229z" />
<glyph unicode="&#xd4;" horiz-adv-x="1409" d="M51 334v387q0 141 101 238q100 96 243 96h619q142 0 242 -96q102 -97 102 -238v-387q0 -143 -102 -239q-99 -95 -242 -95h-619q-144 0 -243 95q-101 96 -101 239zM297 334q0 -88 98 -88h619q98 0 98 88v387q0 88 -98 88h-619q-98 0 -98 -88v-387zM393 1139l168 207h285 l168 -207h-220l-92 84l-90 -84h-219z" />
<glyph unicode="&#xd5;" horiz-adv-x="1409" d="M51 334v387q0 141 101 238q100 96 243 96h619q142 0 242 -96q102 -97 102 -238v-387q0 -143 -102 -239q-99 -95 -242 -95h-619q-144 0 -243 95q-101 96 -101 239zM297 334q0 -88 98 -88h619q98 0 98 88v387q0 88 -98 88h-619q-98 0 -98 -88v-387zM377 1118q0 228 215 228 q36 0 71 -13q21 -8 60 -28q39 -21 61 -29q36 -12 74 -12q60 0 72 61h102q0 -227 -207 -227q-36 0 -73 13q-22 7 -63 28q-41 20 -64 28q-37 13 -74 13q-54 0 -72 -62h-102z" />
<glyph unicode="&#xd9;" horiz-adv-x="1396" d="M51 326v729h246v-729q0 -80 53 -80h696q52 0 52 80v729h247v-729q0 -134 -83 -228q-86 -98 -216 -98h-696q-132 0 -217 97q-82 93 -82 229zM389 1346h285l168 -207h-230z" />
<glyph unicode="&#xda;" horiz-adv-x="1396" d="M51 326v729h246v-729q0 -80 53 -80h696q52 0 52 80v729h247v-729q0 -134 -83 -228q-86 -98 -216 -98h-696q-132 0 -217 97q-82 93 -82 229zM553 1139l168 207h284l-223 -207h-229z" />
<glyph unicode="&#xdd;" horiz-adv-x="1372" d="M40 729v326h246v-326q0 -78 51 -78h696q51 0 51 78v326h246v-326q0 -137 -85 -230q-86 -93 -212 -93h-223v-406h-246v406h-227q-127 0 -213 95q-84 94 -84 228zM552 1139l168 207h285l-224 -207h-229z" />
<glyph unicode="&#xe0;" horiz-adv-x="1394" d="M51 0v729q0 134 82 228q85 98 215 98h696q130 0 216 -98q83 -94 83 -228v-729h-245v336h-648v246h648v147q0 80 -54 80h-696q-51 0 -51 -80v-729h-246zM389 1346h285l168 -207h-230z" />
<glyph unicode="&#xe1;" horiz-adv-x="1394" d="M51 0v729q0 134 82 228q85 98 215 98h696q130 0 216 -98q83 -94 83 -228v-729h-245v336h-648v246h648v147q0 80 -54 80h-696q-51 0 -51 -80v-729h-246zM553 1139l168 207h284l-223 -207h-229z" />
<glyph unicode="&#xe2;" horiz-adv-x="1394" d="M51 0v729q0 134 82 228q85 98 215 98h696q130 0 216 -98q83 -94 83 -228v-729h-245v336h-648v246h648v147q0 80 -54 80h-696q-51 0 -51 -80v-729h-246zM387 1139l168 207h284l168 -207h-219l-92 84l-90 -84h-219z" />
<glyph unicode="&#xe3;" horiz-adv-x="1394" d="M51 0v729q0 134 82 228q85 98 215 98h696q130 0 216 -98q83 -94 83 -228v-729h-245v336h-648v246h648v147q0 80 -54 80h-696q-51 0 -51 -80v-729h-246zM368 1118q0 228 215 228q37 0 72 -13q21 -8 60 -28q39 -21 61 -29q36 -12 74 -12q60 0 71 61h103q0 -227 -207 -227 q-36 0 -73 13q-22 7 -63 28q-42 20 -64 28q-38 13 -74 13q-55 0 -72 -62h-103z" />
<glyph unicode="&#xe8;" d="M51 0v1055h1124v-246h-878v-563h878v-246h-1124zM305 1346h285l168 -207h-230zM450 406v245h668v-245h-668z" />
<glyph unicode="&#xe9;" d="M51 0v1055h1124v-246h-878v-563h878v-246h-1124zM450 406v245h668v-245h-668zM469 1139l168 207h284l-223 -207h-229z" />
<glyph unicode="&#xea;" d="M51 0v1055h1124v-246h-878v-563h878v-246h-1124zM303 1139l168 207h285l167 -207h-219l-92 84l-90 -84h-219zM450 406v245h668v-245h-668z" />
<glyph unicode="&#xec;" horiz-adv-x="348" d="M-133 1346h285l168 -207h-230zM51 0v1055h246v-1055h-246z" />
<glyph unicode="&#xed;" horiz-adv-x="348" d="M30 1139l168 207h285l-224 -207h-229zM50 0v1055h246v-1055h-246z" />
<glyph unicode="&#xf2;" horiz-adv-x="1409" d="M51 334v387q0 141 101 238q100 96 243 96h619q142 0 242 -96q102 -97 102 -238v-387q0 -143 -102 -239q-99 -95 -242 -95h-619q-144 0 -243 95q-101 96 -101 239zM297 334q0 -88 98 -88h619q98 0 98 88v387q0 88 -98 88h-619q-98 0 -98 -88v-387zM395 1346h285l168 -207 h-230z" />
<glyph unicode="&#xf3;" horiz-adv-x="1409" d="M51 334v387q0 141 101 238q100 96 243 96h619q142 0 242 -96q102 -97 102 -238v-387q0 -143 -102 -239q-99 -95 -242 -95h-619q-144 0 -243 95q-101 96 -101 239zM297 334q0 -88 98 -88h619q98 0 98 88v387q0 88 -98 88h-619q-98 0 -98 -88v-387zM559 1139l168 207h285 l-224 -207h-229z" />
<glyph unicode="&#xf4;" horiz-adv-x="1409" d="M51 334v387q0 141 101 238q100 96 243 96h619q142 0 242 -96q102 -97 102 -238v-387q0 -143 -102 -239q-99 -95 -242 -95h-619q-144 0 -243 95q-101 96 -101 239zM297 334q0 -88 98 -88h619q98 0 98 88v387q0 88 -98 88h-619q-98 0 -98 -88v-387zM393 1139l168 207h285 l168 -207h-220l-92 84l-90 -84h-219z" />
<glyph unicode="&#xf5;" horiz-adv-x="1409" d="M51 334v387q0 141 101 238q100 96 243 96h619q142 0 242 -96q102 -97 102 -238v-387q0 -143 -102 -239q-99 -95 -242 -95h-619q-144 0 -243 95q-101 96 -101 239zM297 334q0 -88 98 -88h619q98 0 98 88v387q0 88 -98 88h-619q-98 0 -98 -88v-387zM377 1118q0 228 215 228 q36 0 71 -13q21 -8 60 -28q39 -21 61 -29q36 -12 74 -12q60 0 72 61h102q0 -227 -207 -227q-36 0 -73 13q-22 7 -63 28q-41 20 -64 28q-37 13 -74 13q-54 0 -72 -62h-102z" />
<glyph unicode="&#xf7;" horiz-adv-x="1706" />
<glyph unicode="&#xf9;" horiz-adv-x="582" />
<glyph unicode="&#xfa;" horiz-adv-x="580" />
<glyph unicode="&#xfd;" horiz-adv-x="629" />
<glyph unicode="&#x2000;" horiz-adv-x="682" />
<glyph unicode="&#x2001;" horiz-adv-x="1365" />
<glyph unicode="&#x2002;" horiz-adv-x="682" />
<glyph unicode="&#x2003;" horiz-adv-x="1365" />
<glyph unicode="&#x2004;" horiz-adv-x="455" />
<glyph unicode="&#x2005;" horiz-adv-x="341" />
<glyph unicode="&#x2006;" horiz-adv-x="227" />
<glyph unicode="&#x2007;" horiz-adv-x="227" />
<glyph unicode="&#x2008;" horiz-adv-x="170" />
<glyph unicode="&#x2009;" horiz-adv-x="273" />
<glyph unicode="&#x200a;" horiz-adv-x="75" />
<glyph unicode="&#x2010;" horiz-adv-x="825" d="M51 406v245h723v-245h-723z" />
<glyph unicode="&#x2011;" horiz-adv-x="825" d="M51 406v245h723v-245h-723z" />
<glyph unicode="&#x2012;" horiz-adv-x="825" d="M51 406v245h723v-245h-723z" />
<glyph unicode="&#x2013;" horiz-adv-x="1126" d="M51 406v245h1024v-245h-1024z" />
<glyph unicode="&#x2014;" horiz-adv-x="2150" d="M51 406v245h2048v-245h-2048z" />
<glyph unicode="&#x2018;" horiz-adv-x="327" d="M20 651l119 404h106v-404h-225z" />
<glyph unicode="&#x2019;" horiz-adv-x="327" d="M51 651v404h225l-119 -404h-106z" />
<glyph unicode="&#x201c;" horiz-adv-x="612" d="M20 651l119 404h106v-404h-225zM305 651l118 404h107v-404h-225z" />
<glyph unicode="&#x201d;" horiz-adv-x="612" d="M51 651v404h225l-119 -404h-106zM336 651v404h225l-119 -404h-106z" />
<glyph unicode="&#x2026;" horiz-adv-x="1191" d="M51 0v246h295v-246h-295zM448 0v246h295v-246h-295zM846 0v246h295v-246h-295z" />
<glyph unicode="&#x202f;" horiz-adv-x="273" />
<glyph unicode="&#x205f;" horiz-adv-x="341" />
<glyph unicode="&#xe000;" horiz-adv-x="1055" d="M0 0v1055h1055v-1055h-1055z" />
</font>
</defs>
</svg>
